# xmcd
#
# Track frame offsets: 
#        150
#        18107
#        35418
#        46356
#        63454
#        82388
#        100503
#        129703
#        143919
#        162824
#        176965
#        187541
#        213386
#        226263
#        258435
#        273017
#
# Disc length: 3891 seconds
#
# Revision: 0
# Processed by: cddbd v1.5.2PL0 Copyright (c) Steve Scherf et al.
# Submitted via: ExactAudioCopy v1.0b1
#
DISCID=d50f3110
DTITLE=UFO - The Chrysalis Years (1973-1979) [CD1]
DYEAR=2011
DGENRE=Heavy Metal
TTITLE0=Give Her The Gun' (Single A-Side)
TTITLE1=Sweet Little Thing' (Single B-Side)
TTITLE2=Oh My (Phenomenon)
TTITLE3=Crystal Light (Phenomenon)
TTITLE4=Doctor Doctor (Phenomenon)
TTITLE5=Space Child (Phenomenon)
TTITLE6=Rock Bottom (Phenomenon)
TTITLE7=Too Young To Know (Phenomenon)
TTITLE8=Time On My Hands (Phenomenon)
TTITLE9=Built For Comfort (Phenomenon)
TTITLE10=Lipstick Traces (Phenomenon)
TTITLE11=Queen Of The Deep (Phenomenon)
TTITLE12=Doctor Doctor' (Single Edit - Bonus Track) (Phenomenon)
TTITLE13=Rock Bottom (Bob Harris session, 28th October 1974)
TTITLE14=Time On My Hands (Bob Harris session, 28th October 1974)
TTITLE15=Give Her The Gun (Bob Harris session, 28th October 1974)
EXTD=
EXTT0=
EXTT1=
EXTT2=
EXTT3=
EXTT4=
EXTT5=
EXTT6=
EXTT7=
EXTT8=
EXTT9=
EXTT10=
EXTT11=
EXTT12=
EXTT13=
EXTT14=
EXTT15=
PLAYORDER=
